<svg preserveAspectRatio="none" width="100%" height="100%" overflow="visible" style="display: block;" viewBox="0 0 24 24" fill="none" xmlns="http://www.w3.org/2000/svg">
<g id="grommet-icons:android" clip-path="url(#clip0_0_84)">
<path id="Vector" fill-rule="evenodd" clip-rule="evenodd" d="M5.6204 7.78386H18.1296V17.9777C18.1296 18.5826 17.6388 19.0744 17.0339 19.0744H15.7808V22.1786C15.7837 22.5541 15.6374 22.9153 15.374 23.1829C15.1106 23.4506 14.7517 23.6027 14.3763 23.6058C14.1902 23.6045 14.0062 23.5665 13.8347 23.4941C13.6633 23.4217 13.5079 23.3162 13.3773 23.1836C13.2466 23.0511 13.1434 22.8941 13.0735 22.7217C13.0036 22.5492 12.9683 22.3647 12.9697 22.1786V19.0744H10.7813V22.1786C10.7827 22.3647 10.7474 22.5492 10.6775 22.7217C10.6076 22.8941 10.5044 23.0511 10.3737 23.1836C10.2431 23.3162 10.0876 23.4217 9.91624 23.4941C9.74482 23.5665 9.56082 23.6045 9.37473 23.6058C9.18873 23.6044 9.00483 23.5663 8.83353 23.4938C8.66223 23.4213 8.50689 23.3158 8.37637 23.1833C8.24586 23.0508 8.14272 22.8938 8.07286 22.7214C8.00299 22.5491 7.96777 22.3646 7.96919 22.1786V19.0744H6.71709C6.11219 19.0744 5.6204 18.5826 5.6204 17.9777V7.78386ZM3.16931 7.70026C2.38539 7.70026 1.75 8.34549 1.75 9.14219V14.7752C1.75 15.5699 2.38539 16.2161 3.16931 16.2161C3.95323 16.2161 4.58862 15.5699 4.58862 14.7752V9.14219C4.58862 8.34549 3.95323 7.70026 3.16931 7.70026ZM18.1296 6.75602H5.6204C5.77482 4.97573 6.93151 3.44233 8.59574 2.55415L7.4056 0.806326C7.36507 0.750354 7.33619 0.686817 7.32066 0.619479C7.30513 0.55214 7.30328 0.48237 7.31521 0.414303C7.32714 0.346235 7.35262 0.281255 7.39012 0.223213C7.42763 0.16517 7.4764 0.115246 7.53355 0.0763983C7.59071 0.0375505 7.65507 0.0105695 7.72284 -0.00294617C7.79062 -0.0164618 7.86041 -0.016237 7.92809 -0.00228523C7.99577 0.0116666 8.05997 0.0390616 8.11687 0.0782767C8.17377 0.117492 8.22222 0.167729 8.25935 0.226012L9.55571 2.13023C11.0584 1.60926 12.6926 1.60926 14.1953 2.13023L15.4916 0.226012C15.5297 0.170019 15.5785 0.122078 15.6351 0.0849291C15.6918 0.0477796 15.7552 0.0221483 15.8217 0.00949852C15.8882 -0.00315125 15.9566 -0.00257175 16.0229 0.011204C16.0892 0.0249797 16.1522 0.0516818 16.2082 0.0897857C16.2642 0.12789 16.3121 0.176649 16.3493 0.23328C16.3864 0.289912 16.412 0.353305 16.4247 0.419842C16.4373 0.486379 16.4368 0.554756 16.423 0.621069C16.4092 0.687382 16.3825 0.750332 16.3444 0.806326L15.1562 2.55317C16.8205 3.44036 17.9752 4.97278 18.1296 6.75602ZM9.92849 4.3364C9.92855 4.2456 9.91073 4.15567 9.87604 4.07176C9.84135 3.98784 9.79048 3.91158 9.72631 3.84732C9.66215 3.78307 9.58596 3.73208 9.5021 3.69728C9.41823 3.66247 9.32833 3.64452 9.23752 3.64445C9.14672 3.64439 9.05679 3.66221 8.97288 3.6969C8.88896 3.73159 8.8127 3.78247 8.74844 3.84663C8.68419 3.91079 8.6332 3.98698 8.59839 4.07085C8.56359 4.15471 8.54564 4.24462 8.54557 4.33542C8.54557 4.51881 8.61842 4.69468 8.7481 4.82436C8.87777 4.95403 9.05365 5.02688 9.23703 5.02688C9.42042 5.02688 9.59629 4.95403 9.72597 4.82436C9.85564 4.69468 9.92849 4.51979 9.92849 4.3364ZM15.2929 4.33542C15.2929 4.15177 15.22 3.97565 15.0901 3.84579C14.9603 3.71593 14.7842 3.64298 14.6005 3.64298C14.4169 3.64298 14.2407 3.71593 14.1109 3.84579C13.981 3.97565 13.9081 4.15177 13.9081 4.33542C13.9081 4.51907 13.981 4.69519 14.1109 4.82505C14.2407 4.95491 14.4169 5.02786 14.6005 5.02786C14.7842 5.02786 14.9603 4.95491 15.0901 4.82505C15.22 4.69519 15.2929 4.51907 15.2929 4.33542ZM20.5827 7.69927C19.7987 7.69927 19.1624 8.3445 19.1624 9.1412V14.7762C19.1624 15.5729 19.7987 16.2181 20.5827 16.2181C21.3666 16.2181 22 15.5719 22 14.7762V9.14022C22 8.3445 21.3666 7.69927 20.5827 7.69927Z" fill="var(--fill-0, black)"/>
</g>
<defs>
<clipPath id="clip0_0_84">
<rect width="24" height="24" fill="white"/>
</clipPath>
</defs>
</svg>
