<svg preserveAspectRatio="none" width="100%" height="100%" overflow="visible" style="display: block;" viewBox="0 0 24 24" fill="none" xmlns="http://www.w3.org/2000/svg">
<g id="mdi:apple">
<path id="Vector" d="M18.5878 18.3749C17.7163 19.6769 16.7923 20.9474 15.3853 20.9684C13.9783 20.9999 13.5268 20.1389 11.9308 20.1389C10.3243 20.1389 9.83085 20.9474 8.49735 20.9999C7.12186 21.0524 6.08236 19.6139 5.20036 18.3434C3.40487 15.75 2.02937 10.9725 3.87737 7.75948C4.79086 6.16348 6.42886 5.15548 8.20335 5.12398C9.54735 5.10298 10.8283 6.03748 11.6578 6.03748C12.4768 6.03748 14.0308 4.91398 15.6583 5.08198C16.3408 5.11348 18.2518 5.35498 19.4803 7.16098C19.3858 7.22398 17.2018 8.50497 17.2228 11.1615C17.2543 14.3325 20.0053 15.393 20.0368 15.4035C20.0053 15.477 19.5958 16.9154 18.5878 18.3749ZM12.5923 1.575C13.3588 0.703498 14.6293 0.0419999 15.6793 0C15.8158 1.2285 15.3223 2.46749 14.5873 3.34949C13.8628 4.24199 12.6658 4.93498 11.4898 4.84049C11.3323 3.63299 11.9203 2.37299 12.5923 1.575Z" fill="var(--fill-0, black)"/>
</g>
</svg>
