<svg preserveAspectRatio="none" width="100%" height="100%" overflow="visible" style="display: block;" viewBox="0 0 624.649 51.5" fill="none" xmlns="http://www.w3.org/2000/svg">
<g id="Link &#226;&#134;&#146; Manifesto">
<g transform="translate(-14, 0)">
<path id="Vector" d="M618.895 51.429C617.19 51.429 615.793 50.8607 614.704 49.7242C613.615 48.5876 613.07 47.1906 613.07 45.5331C613.07 43.8756 613.615 42.4786 614.704 41.3421C615.793 40.2055 617.19 39.6373 618.895 39.6373C620.553 39.6373 621.926 40.2055 623.015 41.3421C624.104 42.4786 624.649 43.8756 624.649 45.5331C624.649 47.1906 624.104 48.5876 623.015 49.7242C621.926 50.8607 620.553 51.429 618.895 51.429Z" fill="black"/>
<path id="Vector_2" d="M561.709 50.7186V0.781384H568.457L571.37 10.4421V50.7186H561.709ZM596.232 50.7186L566.61 12.36L568.457 0.781384L598.079 39.14L596.232 50.7186ZM596.232 50.7186L593.461 41.3421V0.781384H603.193V50.7186H596.232Z" fill="black"/>
<path id="Vector_3" d="M528.09 51.5C524.443 51.5 521.034 50.837 517.861 49.511C514.735 48.1851 511.989 46.3618 509.621 44.0414C507.3 41.6736 505.477 38.9269 504.151 35.8014C502.825 32.6285 502.162 29.2425 502.162 25.6435C502.162 22.0444 502.802 18.7057 504.08 15.6276C505.406 12.5021 507.229 9.77908 509.55 7.45862C511.918 5.09081 514.664 3.26758 517.79 1.98896C520.915 0.662987 524.301 0 527.948 0C531.642 0 535.051 0.662987 538.177 1.98896C541.302 3.26758 544.025 5.09081 546.346 7.45862C548.713 9.77908 550.56 12.5021 551.886 15.6276C553.212 18.7531 553.875 22.1154 553.875 25.7145C553.875 29.3136 553.212 32.6759 551.886 35.8014C550.56 38.9269 548.713 41.6736 546.346 44.0414C544.025 46.3618 541.302 48.1851 538.177 49.511C535.099 50.837 531.736 51.5 528.09 51.5ZM527.948 42.4786C531.168 42.4786 533.962 41.7683 536.33 40.3476C538.698 38.9269 540.545 36.9616 541.87 34.4517C543.244 31.9418 543.93 29.0058 543.93 25.6435C543.93 23.1809 543.552 20.9315 542.794 18.8952C542.036 16.8589 540.947 15.1067 539.526 13.6386C538.106 12.1232 536.424 10.963 534.483 10.1579C532.541 9.35288 530.363 8.95035 527.948 8.95035C524.822 8.95035 522.052 9.66069 519.637 11.0814C517.269 12.4547 515.398 14.3963 514.025 16.9062C512.699 19.4161 512.036 22.3285 512.036 25.6435C512.036 28.1533 512.415 30.4501 513.173 32.5338C513.978 34.6175 515.067 36.3933 516.44 37.8614C517.861 39.3294 519.542 40.466 521.484 41.271C523.473 42.0761 525.627 42.4786 527.948 42.4786Z" fill="black"/>
</g>
<path id="Vector_4" d="M298.81 51.429C297.105 51.429 295.708 50.8607 294.619 49.7242C293.53 48.5876 292.985 47.1906 292.985 45.5331C292.985 43.8756 293.53 42.4786 294.619 41.3421C295.708 40.2055 297.105 39.6373 298.81 39.6373C300.467 39.6373 301.841 40.2055 302.93 41.3421C304.019 42.4786 304.564 43.8756 304.564 45.5331C304.564 47.1906 304.019 48.5876 302.93 49.7242C301.841 50.8607 300.467 51.429 298.81 51.429Z" fill="black"/>
<path id="Vector_5" d="M265.217 50.7186V1.8469H274.949V50.7186H265.217ZM249.305 9.37655V0.781384H290.86V9.37655H249.305Z" fill="black"/>
<path id="Vector_6" d="M232.777 50.7186V0.781384H242.438V50.7186H232.777Z" fill="black"/>
<path id="Vector_7" d="M201.838 50.7186L180.172 24.649L201.27 0.781384H213.346L189.833 26.709V22.2338L214.127 50.7186H201.838ZM171.648 50.7186V0.781384H181.309V50.7186H171.648Z" fill="black"/>
<path id="Vector_8" d="M119.862 50.7186V0.781384H126.61L129.522 10.4421V50.7186H119.862ZM154.384 50.7186L124.763 12.36L126.61 0.781384L156.231 39.14L154.384 50.7186ZM154.384 50.7186L151.614 41.3421V0.781384H161.346V50.7186H154.384Z" fill="black"/>
<path id="Vector_9" d="M99.7722 50.7186V0.781384H109.433V50.7186H99.7722Z" fill="black"/>
<path id="Vector_10" d="M48.4017 50.7186V0.781384H58.0624V50.7186H48.4017ZM79.7279 50.7186V0.781384H89.3886V50.7186H79.7279ZM54.5107 29.1952V20.671H82.4272V29.1952H54.5107Z" fill="black"/>
<path id="Vector_11" d="M15.9119 50.7186V1.8469H25.6436V50.7186H15.9119ZM0.000196435 9.37655V0.781384H41.5554V9.37655H0.000196435Z" fill="black"/>
</g>
</svg>
