<svg preserveAspectRatio="none" width="100%" height="100%" overflow="visible" style="display: block;" viewBox="0 0 24 24" fill="none" xmlns="http://www.w3.org/2000/svg">
<g id="ic:baseline-discord">
<path id="Vector" d="M19.2699 5.32993C17.9399 4.70993 16.4999 4.25993 14.9999 3.99993C14.9735 4.0003 14.9484 4.01108 14.9299 4.02993C14.7499 4.35993 14.5399 4.78993 14.3999 5.11993C12.8089 4.88008 11.1909 4.88008 9.59992 5.11993C9.45992 4.77993 9.24992 4.35993 9.05992 4.02993C9.04992 4.00993 9.01992 3.99993 8.98992 3.99993C7.48992 4.25993 6.05992 4.70993 4.71992 5.32993C4.70992 5.32993 4.69992 5.33993 4.68992 5.34993C1.96992 9.41993 1.21992 13.3799 1.58992 17.2999C1.58992 17.3199 1.59992 17.3399 1.61992 17.3499C3.41992 18.6699 5.14992 19.4699 6.85992 19.9999C6.88992 20.0099 6.91992 19.9999 6.92992 19.9799C7.32992 19.4299 7.68992 18.8499 7.99992 18.2399C8.01992 18.1999 7.99992 18.1599 7.95992 18.1499C7.38992 17.9299 6.84992 17.6699 6.31992 17.3699C6.27992 17.3499 6.27992 17.2899 6.30992 17.2599C6.41992 17.1799 6.52992 17.0899 6.63992 17.0099C6.65992 16.9899 6.68992 16.9899 6.70992 16.9999C10.1499 18.5699 13.8599 18.5699 17.2599 16.9999C17.2799 16.9899 17.3099 16.9899 17.3299 17.0099C17.4399 17.0999 17.5499 17.1799 17.6599 17.2699C17.6999 17.2999 17.6999 17.3599 17.6499 17.3799C17.1299 17.6899 16.5799 17.9399 16.0099 18.1599C15.9699 18.1699 15.9599 18.2199 15.9699 18.2499C16.2899 18.8599 16.6499 19.4399 17.0399 19.9899C17.0699 19.9999 17.0999 20.0099 17.1299 19.9999C18.8499 19.4699 20.5799 18.6699 22.3799 17.3499C22.3999 17.3399 22.4099 17.3199 22.4099 17.2999C22.8499 12.7699 21.6799 8.83993 19.3099 5.34993C19.2999 5.33993 19.2899 5.32993 19.2699 5.32993ZM8.51992 14.9099C7.48992 14.9099 6.62992 13.9599 6.62992 12.7899C6.62992 11.6199 7.46992 10.6699 8.51992 10.6699C9.57992 10.6699 10.4199 11.6299 10.4099 12.7899C10.4099 13.9599 9.56992 14.9099 8.51992 14.9099ZM15.4899 14.9099C14.4599 14.9099 13.5999 13.9599 13.5999 12.7899C13.5999 11.6199 14.4399 10.6699 15.4899 10.6699C16.5499 10.6699 17.3899 11.6299 17.3799 12.7899C17.3799 13.9599 16.5499 14.9099 15.4899 14.9099Z" fill="var(--fill-0, black)"/>
</g>
</svg>
