<svg width="20" height="20" viewBox="0 0 20 20" fill="none" xmlns="http://www.w3.org/2000/svg">
  <path d="M18.171 10.204c0-.639-.057-1.253-.164-1.843H10v3.484h4.575a3.91 3.91 0 0 1-1.695 2.566v2.258h2.908c1.7-1.566 2.683-3.87 2.683-6.465Z" fill="#4285F4"/>
  <path d="M10 18.5c2.43 0 4.467-.806 5.958-2.18L13.05 14.06c-.806.54-1.837.86-3.05.86-2.344 0-4.328-1.583-5.036-3.711H1.957v2.332A8.997 8.997 0 0 0 10 18.5Z" fill="#34A853"/>
  <path d="M4.964 11.209A5.41 5.41 0 0 1 4.682 10c0-.419.102-.827.282-1.209V6.459H1.957A8.997 8.997 0 0 0 1 10c0 1.452.348 2.826.957 4.041l3.007-2.332Z" fill="#FBBC05"/>
  <path d="M10 5.08c1.321 0 2.507.455 3.439 1.348l2.584-2.582C14.462 2.393 12.426 1.5 10 1.5a8.997 8.997 0 0 0-8.043 4.959l3.007 2.332C5.672 6.663 7.656 5.08 10 5.08Z" fill="#EA4335"/>
</svg>
