<svg preserveAspectRatio="none" width="100%" height="100%" overflow="visible" style="display: block;" viewBox="0 0 24 24" fill="none" xmlns="http://www.w3.org/2000/svg">
<g id="stash:play-btn-solid">
<path id="Vector" fill-rule="evenodd" clip-rule="evenodd" d="M16.565 4.25H7.435C6.622 4.25 5.965 4.25 5.435 4.293C4.888 4.338 4.408 4.433 3.964 4.659C3.25829 5.01854 2.68454 5.59229 2.325 6.298C2.099 6.742 2.005 7.222 1.96 7.768C1.916 8.299 1.917 8.955 1.917 9.768V14.232C1.917 15.045 1.917 15.701 1.96 16.232C2.005 16.778 2.099 17.258 2.325 17.702C2.68437 18.4081 3.25814 18.9822 3.964 19.342C4.408 19.568 4.888 19.662 5.435 19.707C5.965 19.75 6.622 19.75 7.435 19.75H16.565C17.378 19.75 18.034 19.75 18.565 19.707C19.111 19.662 19.591 19.567 20.035 19.341C20.7411 18.9816 21.3152 18.4079 21.675 17.702C21.901 17.258 21.995 16.778 22.04 16.232C22.083 15.701 22.083 15.045 22.083 14.232V9.768C22.083 8.955 22.083 8.299 22.04 7.768C21.995 7.222 21.9 6.742 21.674 6.298C21.3149 5.59207 20.7415 5.01797 20.036 4.658C19.591 4.432 19.111 4.338 18.565 4.293C18.034 4.25 17.378 4.25 16.565 4.25ZM10.014 9.896C10.014 9.51 10.435 9.271 10.767 9.47L14.273 11.574C14.3465 11.6182 14.4073 11.6806 14.4496 11.7553C14.4918 11.8299 14.514 11.9142 14.514 12C14.514 12.0858 14.4918 12.1701 14.4496 12.2447C14.4073 12.3194 14.3465 12.3818 14.273 12.426L10.767 14.53C10.6916 14.5753 10.6055 14.5998 10.5175 14.601C10.4296 14.6021 10.3429 14.5799 10.2663 14.5366C10.1897 14.4933 10.126 14.4304 10.0817 14.3544C10.0374 14.2784 10.014 14.192 10.014 14.104V9.896Z" fill="var(--fill-0, black)"/>
</g>
</svg>
